<svg id="_9" data-name="9" xmlns="http://www.w3.org/2000/svg" width="24" height="24" viewBox="0 0 24 24">
    <rect id="_9_Background_" data-name="9 (Background)" width="24" height="24" fill="none" />
    <g id="home_-_icon" data-name="home - icon" transform="translate(3 2)">
        <path id="Subtract" d="M7,20H2.117A2.1,2.1,0,0,1,0,17.931V8.177A2.03,2.03,0,0,1,.745,6.6L8.133.49a2.148,2.148,0,0,1,2.733,0L18.255,6.6A2.03,2.03,0,0,1,19,8.177v9.754a2.009,2.009,0,0,1-.59,1.441A2.117,2.117,0,0,1,16.894,20H12V14.5a2.5,2.5,0,1,0-5,0V20Z" fill="#fff" stroke="#8a8a8a" stroke-linecap="round" stroke-linejoin="round" stroke-miterlimit="10" stroke-width="1.2" stroke-dasharray="0 0" />
    </g>
</svg>
  