<svg id="_81" data-name="81" xmlns="http://www.w3.org/2000/svg" xmlns:xlink="http://www.w3.org/1999/xlink" width="24" height="24" viewBox="0 0 24 24">
  <defs>
    <clipPath id="clip-path">
      <rect id="_81_Background_Mask_" data-name="81 (Background/Mask)" width="24" height="24" fill="none"/>
    </clipPath>
  </defs>
  <rect id="_81_Background_Mask_2" data-name="81 (Background/Mask)" width="24" height="24" fill="none"/>
  <g id="_81-2" data-name="81" clip-path="url(#clip-path)">
    <g id="Group_1718" data-name="Group 1718" transform="translate(3.5 5.5)">
      <path id="Vector" d="M.5,4.16a.5.5,0,0,1-.5-.5V.5A.5.5,0,0,1,.5,0H16.43a.5.5,0,0,1,.5.5V3.66a.508.508,0,0,1-.5.5Z" fill="none" stroke="#8a8a8a" stroke-linecap="round" stroke-linejoin="round" stroke-miterlimit="10" stroke-width="1.2" stroke-dasharray="0 0"/>
      <path id="Vector-2" data-name="Vector" d="M2,9.76a2.006,2.006,0,0,1-2-2V0H14.26V7.77a2.006,2.006,0,0,1-2.01,1.99Z" transform="translate(1.34 4.16)" fill="none" stroke="#8a8a8a" stroke-linecap="round" stroke-linejoin="round" stroke-miterlimit="10" stroke-width="1.2" stroke-dasharray="0 0"/>
      <path id="Vector-3" data-name="Vector" d="M0,0H4.21" transform="translate(6.36 7.01)" fill="none" stroke="#8a8a8a" stroke-linecap="round" stroke-linejoin="round" stroke-miterlimit="10" stroke-width="1.2" stroke-dasharray="0 0"/>
    </g>
  </g>
</svg>
